<?xml version="1.0" encoding="UTF-8" standalone="no"?><!DOCTYPE svg PUBLIC "-//W3C//DTD SVG 1.1//EN" "http://www.w3.org/Graphics/SVG/1.1/DTD/svg11.dtd"><svg width="100%" height="100%" viewBox="0 0 24 24" version="1.1" xmlns="http://www.w3.org/2000/svg" xmlns:xlink="http://www.w3.org/1999/xlink" xml:space="preserve" xmlns:serif="http://www.serif.com/" style="fill-rule:evenodd;clip-rule:evenodd;stroke-linejoin:round;stroke-miterlimit:2;"><g id="Bluetooth"><path d="M18.112,4.537l0.095,-0.001c0.722,-0.001 1.772,-0.002 2.472,-0.003c0.455,-0.001 0.876,0.245 1.099,0.642c0.405,0.721 1.064,1.894 1.505,2.679c0.274,0.486 0.205,1.093 -0.169,1.506c-0.676,0.746 -1.734,1.914 -2.333,2.575c-0.256,0.283 -0.254,0.715 0.005,0.995c0.282,0.306 0.608,0.536 0.906,0.859c0.332,0.36 0.407,0.888 0.188,1.326c-0.311,0.621 -0.603,1.389 -1.013,2.209c-0.56,1.119 -1.613,2.076 -2.864,2.073l-2.757,0.058c1.233,-0.008 2.357,-0.71 2.91,-1.815c0.41,-0.82 0.87,-1.74 1.181,-2.361c0.219,-0.438 0.144,-0.965 -0.188,-1.325c-0.298,-0.323 -0.663,-0.718 -0.945,-1.024c-0.259,-0.28 -0.261,-0.712 -0.005,-0.995c0.599,-0.661 1.657,-1.829 2.332,-2.575c0.375,-0.413 0.443,-1.02 0.17,-1.506c-0.441,-0.785 -1.1,-1.958 -1.505,-2.679c-0.221,-0.393 -0.635,-0.637 -1.084,-0.638Z" style="fill:#fff;"/><path d="M14.068,6.067l-6.055,0c-0.422,0 -0.765,-0.342 -0.765,-0.765c0,0 0,0 0,-0c0,-0.423 0.343,-0.765 0.765,-0.765l7.561,-0c0.017,-0.001 0.034,-0.001 0.051,-0.001c0.721,-0.001 1.772,-0.002 2.472,-0.003c0.455,-0.001 0.875,0.245 1.099,0.642c0.405,0.721 1.064,1.894 1.505,2.679c0.273,0.486 0.205,1.093 -0.17,1.506c-0.675,0.746 -1.733,1.914 -2.332,2.575c-0.256,0.283 -0.254,0.715 0.005,0.995c0.282,0.306 0.647,0.701 0.945,1.024c0.332,0.36 0.407,0.887 0.188,1.325c-0.311,0.621 -0.771,1.541 -1.181,2.361c-0.56,1.119 -1.706,1.825 -2.957,1.822l-3.332,-0.009l-0,0.014c-0,0 -6.258,0 -8.472,0c-0.422,0 -0.765,-0.342 -0.765,-0.765c-0,-0 -0,-0 -0,-0c-0,-0.423 0.343,-0.765 0.765,-0.765l6.861,-0c0.417,-0 0.755,-0.338 0.755,-0.755c-0,-0.007 -0,-0.014 -0,-0.022c-0,-0.416 -0.338,-0.754 -0.755,-0.754l-3.703,0c-0.422,0 -0.765,-0.342 -0.765,-0.765c0,-0 0,-0 0,-0c0,-0.423 0.343,-0.765 0.765,-0.765l5.6,-0c0.417,-0 0.754,-0.338 0.754,-0.755c0,-0.007 0,-0.014 0,-0.022c0,-0.416 -0.337,-0.754 -0.754,-0.754l-6.012,0c-0.423,0 -0.765,-0.342 -0.765,-0.765c-0,-0 -0,-0 -0,-0c-0,-0.423 0.342,-0.765 0.765,-0.765c-0,-0 6.618,-0 7.927,-0c0.417,-0 0.754,-0.338 0.754,-0.755c0,-0.007 0,-0.014 0,-0.022c0,-0.416 -0.337,-0.754 -0.754,-0.754l-3.099,0c-0.422,0 -0.765,-0.342 -0.765,-0.765c0,-0 0,-0 0,-0c0,-0.143 0.039,-0.276 0.107,-0.391l-1.742,0c-0.423,0 -0.766,-0.342 -0.766,-0.765c0,0 0,0 0,-0c0,-0.423 0.343,-0.765 0.766,-0.765l5.499,-0c0.417,-0 0.754,-0.338 0.754,-0.754c0,-0.008 0,-0.015 0,-0.022c0,-0.417 -0.337,-0.755 -0.754,-0.755Z" style="fill:#fff;fill-opacity:0.4;"/><g><path d="M6.148,5.247c0,-0.394 -0.32,-0.714 -0.714,-0.714c-0.103,-0 -0.209,-0 -0.313,-0c-0.394,-0 -0.714,0.32 -0.714,0.714c-0,0.035 -0,0.071 -0,0.106c-0,0.395 0.32,0.714 0.714,0.714c0.104,0 0.21,0 0.313,0c0.394,0 0.714,-0.319 0.714,-0.714c0,-0.035 0,-0.071 0,-0.106Z" style="fill:#fff;"/><path d="M7.89,10.331c-0,-0.394 -0.32,-0.714 -0.715,-0.714c-0.751,0 -1.925,0 -2.676,0c-0.395,0 -0.715,0.32 -0.715,0.714c0,0.036 0,0.071 0,0.106c0,0.395 0.32,0.715 0.715,0.715c0.751,-0 1.925,-0 2.676,-0c0.395,-0 0.715,-0.32 0.715,-0.715c-0,-0.035 -0,-0.07 -0,-0.106Z" style="fill:#fff;"/><path d="M5.278,7.789c-0,-0.394 -0.32,-0.714 -0.715,-0.714c-0.537,-0 -1.269,-0 -1.806,-0c-0.394,-0 -0.714,0.32 -0.714,0.714c0,0.036 0,0.071 0,0.106c0,0.395 0.32,0.714 0.714,0.714c0.537,0 1.269,0 1.806,0c0.395,0 0.715,-0.319 0.715,-0.714c-0,-0.035 -0,-0.07 -0,-0.106Z" style="fill:#fff;"/><path d="M2.292,13.097c-0,-0.394 -0.32,-0.714 -0.715,-0.714c-0.103,-0 -0.209,-0 -0.312,-0c-0.395,-0 -0.715,0.32 -0.715,0.714c0,0.035 0,0.071 0,0.106c0,0.394 0.32,0.714 0.715,0.714c0.103,0 0.209,0 0.312,0c0.395,0 0.715,-0.32 0.715,-0.714c-0,-0.035 -0,-0.071 -0,-0.106Z" style="fill:#fff;"/><path d="M4.407,13.097c-0,-0.394 -0.32,-0.714 -0.715,-0.714c-0.103,-0 -0.209,-0 -0.312,-0c-0.395,-0 -0.714,0.32 -0.714,0.714c-0,0.035 -0,0.071 -0,0.106c-0,0.394 0.319,0.714 0.714,0.714c0.103,0 0.209,0 0.312,0c0.395,0 0.715,-0.32 0.715,-0.714c-0,-0.035 -0,-0.071 -0,-0.106Z" style="fill:#fff;"/><path d="M4.875,15.863c0,-0.395 -0.319,-0.715 -0.714,-0.715c-0.537,0 -1.269,0 -1.806,0c-0.394,0 -0.714,0.32 -0.714,0.715c-0,0.035 -0,0.07 -0,0.105c-0,0.395 0.32,0.715 0.714,0.715c0.537,-0 1.269,-0 1.806,-0c0.395,-0 0.714,-0.32 0.714,-0.715c0,-0.035 0,-0.07 0,-0.105Z" style="fill:#fff;"/></g></g></svg>