<?xml version="1.0" encoding="UTF-8" standalone="no"?><!DOCTYPE svg PUBLIC "-//W3C//DTD SVG 1.1//EN" "http://www.w3.org/Graphics/SVG/1.1/DTD/svg11.dtd"><svg width="100%" height="100%" viewBox="0 0 24 24" version="1.1" xmlns="http://www.w3.org/2000/svg" xmlns:xlink="http://www.w3.org/1999/xlink" xml:space="preserve" xmlns:serif="http://www.serif.com/" style="fill-rule:evenodd;clip-rule:evenodd;stroke-linejoin:round;stroke-miterlimit:2;"><g id="Volume-Speaker-Normal" serif:id="Volume Speaker Normal"><g id="SVG"><g id="Speaker---Notes" serif:id="Speaker &amp; Notes"><path d="M4.461,6.532l6.714,-4.194c0.411,-0.256 0.929,-0.27 1.353,-0.035c0.423,0.235 0.686,0.681 0.686,1.166l0,17.062c0,0.485 -0.263,0.931 -0.686,1.166c-0.424,0.235 -0.942,0.221 -1.353,-0.035l-6.714,-4.194l-1.932,-0c-0.237,-0 -0.464,-0.095 -0.631,-0.262c-0.168,-0.167 -0.262,-0.395 -0.262,-0.631l0,-9.15c0,-0.236 0.094,-0.464 0.262,-0.631c0.167,-0.167 0.394,-0.262 0.631,-0.262l1.932,0Z" style="fill:#fff;fill-opacity:0.4;"/><path d="M11.802,2.138c0.248,-0.014 0.5,0.04 0.726,0.165c0.423,0.235 0.686,0.681 0.686,1.166l0,17.062c0,0.485 -0.263,0.931 -0.686,1.166c-0.226,0.125 -0.478,0.179 -0.726,0.165l-0,-19.724Z" style="fill:#fff;fill-opacity:0.4;"/><path d="M14.255,10.943l0.341,-0c0.186,-0 0.364,0.074 0.495,0.205c0.132,0.131 0.205,0.309 0.205,0.495l0,0.485c0,0.186 -0.073,0.364 -0.205,0.495c-0.131,0.131 -0.309,0.205 -0.495,0.205l-0.341,0l0,4.496c0,0.186 -0.073,0.364 -0.205,0.495c-0.131,0.132 -0.309,0.205 -0.495,0.205l-0.341,0l0,-12.048l0.341,-0c0.186,-0 0.364,0.073 0.495,0.205c0.132,0.131 0.205,0.309 0.205,0.495l0,4.267Zm-9.794,-4.411l-1.412,0l-0,10.936l1.412,-0l0,-10.936Z" style="fill:#fff;"/><path d="M18.252,18.719l-0.401,0.231c-0.254,0.147 -0.44,0.389 -0.516,0.673c-0.076,0.283 -0.036,0.586 0.111,0.84c0.039,0.067 0.078,0.135 0.117,0.202c0.147,0.254 0.388,0.44 0.672,0.516c0.284,0.076 0.586,0.036 0.84,-0.111c0.067,-0.038 0.135,-0.078 0.202,-0.116c0.254,-0.147 0.44,-0.389 0.516,-0.673c0.076,-0.283 0.036,-0.586 -0.111,-0.84l-1.134,-1.965c0.128,-0.033 0.295,-0.116 0.382,-0.329c0,0 0,0 0,0c0.121,-0.294 0.042,-0.633 -0.198,-0.842c-0.24,-0.209 -0.586,-0.243 -0.861,-0.084l-0.002,0.001c-0.211,0.122 -0.365,0.322 -0.428,0.557c-0.063,0.235 -0.03,0.485 0.092,0.695l0.719,1.245Zm0.439,0.761l-0.401,0.231c-0.052,0.03 -0.091,0.08 -0.106,0.139c-0.016,0.059 -0.008,0.121 0.023,0.174l0.116,0.202c0.031,0.052 0.081,0.091 0.139,0.107c0.059,0.015 0.121,0.007 0.174,-0.023l0.202,-0.117c0.053,-0.03 0.091,-0.08 0.107,-0.139c0.016,-0.059 0.007,-0.121 -0.023,-0.174l-0.231,-0.4Z" style="fill:#fff;"/><path d="M21.388,10.64l0.012,-0.019l0.063,-0.143c0.121,-0.295 0.042,-0.633 -0.198,-0.843c-0.24,-0.209 -0.586,-0.243 -0.861,-0.084l-0.002,0.001c-0.211,0.122 -0.365,0.322 -0.428,0.557c-0.063,0.235 -0.03,0.485 0.092,0.695l0.719,1.245l-0.401,0.232c-0.254,0.146 -0.439,0.388 -0.515,0.672c-0.076,0.284 -0.037,0.586 0.11,0.84c0.039,0.067 0.078,0.135 0.117,0.202c0.147,0.254 0.388,0.44 0.672,0.516c0.284,0.076 0.586,0.036 0.84,-0.111c0.067,-0.038 0.135,-0.078 0.202,-0.116c0.255,-0.147 0.44,-0.389 0.516,-0.673c0.076,-0.283 0.036,-0.585 -0.111,-0.84l-1.118,-1.937c0.116,-0.021 0.223,-0.088 0.291,-0.194Zm-0.164,2.17l-0.401,0.231c-0.052,0.03 -0.091,0.08 -0.106,0.139c-0.016,0.059 -0.008,0.121 0.023,0.174l0.116,0.202c0.031,0.053 0.081,0.091 0.139,0.107c0.059,0.015 0.122,0.007 0.174,-0.023l0.202,-0.117c0.053,-0.03 0.091,-0.08 0.107,-0.139c0.016,-0.059 0.007,-0.121 -0.023,-0.174l-0.231,-0.4Z" style="fill:#fff;"/><path d="M18.252,5.38l-0.401,0.231c-0.254,0.147 -0.44,0.388 -0.516,0.672c-0.076,0.284 -0.036,0.586 0.111,0.84c0.039,0.067 0.078,0.135 0.117,0.202c0.147,0.255 0.388,0.44 0.672,0.516c0.284,0.076 0.586,0.036 0.84,-0.111c0.067,-0.038 0.135,-0.078 0.202,-0.116c0.254,-0.147 0.44,-0.389 0.516,-0.672c0.076,-0.284 0.036,-0.586 -0.111,-0.841l-1.118,-1.937c0.07,-0.012 0.139,-0.042 0.198,-0.09l0.004,-0.004c0.019,-0.019 0.1,-0.105 0.164,-0.262c0,-0 0,-0 0,-0c0.121,-0.295 0.042,-0.633 -0.198,-0.843c-0.24,-0.209 -0.586,-0.243 -0.861,-0.084l-0.002,0.001c-0.211,0.122 -0.365,0.322 -0.428,0.557c-0.063,0.235 -0.03,0.485 0.092,0.696l0.719,1.245Zm0.439,0.76l-0.401,0.231c-0.052,0.031 -0.091,0.081 -0.106,0.139c-0.016,0.059 -0.008,0.122 0.023,0.174l0.116,0.202c0.031,0.053 0.081,0.091 0.139,0.107c0.059,0.016 0.121,0.007 0.174,-0.023l0.202,-0.117c0.053,-0.03 0.091,-0.08 0.107,-0.139c0.016,-0.058 0.007,-0.121 -0.023,-0.174l-0.231,-0.4Z" style="fill:#fff;"/></g></g></g></svg>